# xmcd CD Database Entry
#
# Track frame offsets:
# 182
# 12265
# 25600
# 40352
# 53415
# 68947
# 79985
# 94650
# 105172
# 119765
# 132010
# 143112
# 154907
# 168852
# 179220
# 191250
# 208697
# 222142
# 240162
# 255382
#
# Disc length: 3561 seconds
#
# Revision: 3
# Processed by: cddbd v1.4PL0 Copyright (c) Steve Scherf et al.
# Submitted via: tcd 2.0b
#
DISCID=070de714
DTITLE=The Mamas and Papas - The Mamas and Papas - The EP Collection
DYEAR=1900
DGENRE=
TTITLE0=California Deamin'
TTITLE1=Straight Shooter
TTITLE2=Somebody Groovy
TTITLE3=Got A Feeling
TTITLE4=Monday Monday
TTITLE5=Hey Girl
TTITLE6=The In Crowd
TTITLE7=You Baby
TTITLE8=I Saw Her Again Last Night
TTITLE9=Even If I Could
TTITLE10=Go Where You Wanna Go
TTITLE11=I Call Your Name
TTITLE12=Look Through My Window
TTITLE13=Words Of Love
TTITLE14=Trip, Stumble And Fall
TTITLE15=Dancing In The Street
TTITLE16=Dedicated To The One I Love
TTITLE17=I Can't Wait
TTITLE18=Free Advice
TTITLE19=That Of Girl
EXTD=
EXTT0=
EXTT1=
EXTT2=\n\n\n\n
EXTT3=
EXTT4=
EXTT5=
EXTT6=
EXTT7=
EXTT8=
EXTT9=
EXTT10=
EXTT11=
EXTT12=
EXTT13=
EXTT14=
EXTT15=
EXTT16=
EXTT17=
EXTT18=
EXTT19=
PLAYORDER=
